<svg xmlns="http://www.w3.org/2000/svg" version="1.1" xmlns:xlink="http://www.w3.org/1999/xlink" width="512" height="512" x="0" y="0" viewBox="0 0 512 512" style="enable-background:new 0 0 512 512" xml:space="preserve" class=""><g><path d="M336.761 62.173H51.116C22.885 62.173 0 85.059 0 113.289v285.645c0 28.231 22.885 51.116 51.116 51.116h285.645c28.231 0 51.116-22.885 51.116-51.116V113.289c0-28.23-22.885-51.116-51.116-51.116z" style="" fill="#b4bbcc" data-original="#b4bbcc" class=""></path><path d="M313.395 113.929H74.482c-12.552 0-22.726 10.175-22.726 22.726v238.911c0 12.552 10.175 22.726 22.726 22.726h238.911c12.552 0 22.726-10.175 22.726-22.726v-238.91c.002-12.551-10.174-22.727-22.724-22.727z" style="" fill="#ffffff" data-original="#ffffff" class=""></path><path d="M74.653 159.553c0-12.552 10.175-22.726 22.726-22.726h238.74v-.171c0-12.552-10.175-22.726-22.726-22.726H74.482c-12.552 0-22.726 10.175-22.726 22.726v238.911c0 12.552 10.175 22.726 22.726 22.726h.171v-238.74z" style="opacity:0.1;enable-background:new ;" fill="#000000" opacity="1" data-original="#000000" class=""></path><path d="M236.938 371.327a35.577 35.577 0 0 1-24.835-10.102L95.321 247.391c-14.072-13.718-14.36-36.245-.643-50.318 13.716-14.074 36.244-14.359 50.317-.643l85.372 83.218c34.186-48.731 105.492-134.379 226.861-212.078 16.556-10.597 38.558-5.765 49.152 10.783 10.597 16.551 5.768 38.557-10.782 49.153-163.014 104.36-226.495 223.518-227.117 224.71a35.584 35.584 0 0 1-31.543 19.111z" style="" fill="#a5eb78" data-original="#a5eb78" class=""></path></g></svg>