<svg xmlns="http://www.w3.org/2000/svg" version="1.1" xmlns:xlink="http://www.w3.org/1999/xlink" width="512" height="512" x="0" y="0" viewBox="0 0 512 512" style="enable-background:new 0 0 512 512" xml:space="preserve"><g><path fill="#2a428c" d="m468.4 265.7-21.5-116.5-34.2 29.2-90.9 77.5c-5.8 4.9-13.3 7.3-20.8 6.6l-2.4-.3c-.4 0-.8-.1-1.2-.2s-.9-.2-1.2-.3c-.7-.2-1.6-.5-2.4-.7l-154.9-55.1 14.3 77.9.5 2.6c9.3 7.3 19.2 14.7 29.4 22.1 11.1 8 22.8 16.1 34.9 24.1 6.6 4.3 13.3 8.6 20.3 13 5.7 3.5 11.4 6.9 16.9 10.3 10.2 6 20.2 11.7 30 17.1l10.2 3.6c22.6 8.1 47.8 3.5 66.1-12.1l25.4-21.6 48.4-41.3 29.1-24.8c3.3-2.9 4.8-7 4-11.1z" opacity="1" data-original="#2a428c"></path><path fill="#3c58a0" d="m507.2 97.8-60.3 51.4-34.2 29.2-90.9 77.5c-5.8 4.9-13.3 7.3-20.8 6.6l-2.4-.3c-.4 0-.8-.1-1.2-.2s-.9-.2-1.2-.3c-.7-.2-1.6-.5-2.4-.7l-154.9-55.1-12.3-4.4L87 187.4l-22.6-8c-5.8-2-7.2-9.6-2.5-13.5l20.3-17.4 27.2-23.3L247.1 7.8c7.8-6.6 18.5-8.6 28.1-5.1l229.5 81.6c5.8 2 7.2 9.5 2.5 13.5z" opacity="1" data-original="#3c58a0"></path><path fill="#fc8b4c" d="M318 503.2c1.6 2.1 3.6 3.9 6 5.2 15.4 8.6 39.4-5 53.6-30.4 14.3-25.5 13.4-53-1.9-61.7-1.3-.5-2.5-1.1-3.8-1.6h-.1c-15.3-4.8-36.7 8.7-49.8 32.1-12.1 21.5-13.2 44.6-4 56.4z" opacity="1" data-original="#fc8b4c"></path><path fill="#fcad6d" d="M371.7 414.6c-8.5-3.5-18.4.5-26.4 6-.9.6-1.8 1.2-2.7 1.9-.8.6-1.7 1.3-2.4 1.9-.6.4-1.2.9-1.7 1.4-.6.6-1.2 1-1.7 1.6-.3.3-.6.5-.8.8-.4.4-.7.7-1 1.1-.8.8-1.5 1.5-2.3 2.4-.9 1-1.9 2.2-2.8 3.4s-1.9 2.4-2.8 3.7c-.9 1.4-1.9 2.8-2.9 4.3-3.4 5.1-6.3 10.8-8.5 16.6-4.6 12.3-6 25.4-1.4 36.7.3.7.6 1.4.9 2 .2.4.3.8.6 1.2.2.6.6 1.1.9 1.6.4.7.9 1.4 1.4 2-29.4-25.5-64.5-52.9-106-79.8h-.1c-8-5.2-16-10.3-24.5-15.5-4.1-2.5-8.3-5.1-12.5-7.5l-.9-.6h-.1c-37-21.7-72.4-39-104.6-52.8L56 282.3c.2-.5.5-.9.8-1.4 6.6-11.7 15.2-20.9 24.1-26.5 10.4-6.7 21.3-8.6 29.7-4 2 1.8 4 3.6 6.1 5.4 11.4 9.9 23.8 20.1 37 30.5 9.3 7.3 19.2 14.7 29.4 22.2 11.1 8 22.8 16.1 35 24.1 6.6 4.4 13.3 8.6 20.3 13 5.7 3.5 11.3 6.9 16.9 10.3 10.2 6 20.2 11.7 30.1 17.1 18.3 10 36.1 18.9 53.2 26.8 11.4 5.4 22.4 10.3 33.1 14.8z" opacity="1" data-original="#fcad6d"></path><path fill="#ff4155" d="M341.6 472.9c.4.6.9 1 1.5 1.3 4 2.2 10.2-1.3 13.9-7.9s3.5-13.7-.5-16c-.3-.1-.7-.3-1-.4-4-1.2-9.5 2.2-12.9 8.3-3.1 5.7-3.4 11.7-1 14.7z" opacity="1" data-original="#ff4155"></path><path fill="#e9efff" d="M255.2 355.9c-1.8 1.2-3.8 2.6-6 4.3-1.2.8-2.4 1.8-3.6 2.9-4.8 4.1-10.1 9.4-15.1 16.1-12.9 17.3-17 34.8-18.5 44.2-7.3-4.8-14.7-9.5-22.4-14.2-.7-.4-1.4-.8-2.1-1.3-4.1-2.5-8.3-5.1-12.5-7.5l-.9-.6h-.1c.9-7.8 3.5-23.6 14.5-39.8 4.6-6.7 9.6-12.1 14.3-16.4 1.9-1.8 3.9-3.3 5.6-4.6 3.8-2.8 7.2-4.9 9.7-6.4 5.4 3.5 10.9 7.1 16.5 10.6 1.3.8 2.5 1.5 3.8 2.4 5.6 3.5 11.2 7 16.8 10.3z" opacity="1" data-original="#e9efff"></path><path fill="#d3dcfb" d="M212 423.3c-8.1 3.9-17.6 9.2-27.6 16.7-8.5 6.4-15.4 12.8-20.9 18.6-5.1-6-11.3-12.5-18.8-19.2l-1.8-1.5c-6.9-6-13.5-10.8-19.6-14.8 6.8-4.4 15-9.1 24.4-13.4 9.4-4.4 18.3-7.6 26.1-9.9h.1l.9.6c4.8 2.9 9.6 5.9 14.4 8.8 7.7 4.7 15.2 9.4 22.8 14.1z" opacity="1" data-original="#d3dcfb"></path><path fill="#ff4155" d="m91.4 454.5-22.2 4.6-42.9-189 26.2-5.3 3.5 17.5L69.4 347z" opacity="1" data-original="#ff4155"></path><path fill="#d3dcfb56" d="m52.5 264.8-26.2 5.3-16.4 3.4L5.2 251l15.9-3.3 26.7-5.5z" opacity="1" data-original="#d3dcfb56"></path><path fill="#ff4155" d="m47.8 242.2-26.7 5.5-7.7-33.9c1.8-1 3.8-1.7 5.9-2.2 11.8-2.4 23.3 5.1 25.6 16.9z" opacity="1" data-original="#ff4155"></path><path fill="#d3dcfb56" d="m91.4 454.5-12.2 48.6-30.4-39.8 20.4-4.2z" opacity="1" data-original="#d3dcfb56"></path><path fill="#4ce088" d="M446.5 370.2c-3.9 0-7.4-2.8-8.1-6.8l-32.9-178.9-123.8-45c-4.3-1.6-6.5-6.3-5-10.6 1.6-4.3 6.3-6.5 10.6-5l.2.1 128 46.5c2.7 1 4.7 3.3 5.3 6.1 0 .1 0 .2.1.3l33.8 183.5c.8 4.5-2.2 8.8-6.7 9.6-.5.2-1 .2-1.5.2z" opacity="1" data-original="#4ce088"></path><path fill="#30c16b" d="M467.3 388.2c-3.4 4.9-8.5 8.2-14.3 9.2-1.4.2-2.7.4-4 .4-10.6 0-19.9-7.5-21.9-18.2-2.2-12 5.8-23.6 17.8-25.9 12-2.2 23.6 5.8 25.9 17.8 1.2 5.9-.1 11.8-3.5 16.7z" opacity="1" data-original="#30c16b"></path><path fill="#d3dcfb56" d="M189.6 409.1c-.1.1-.2.1-.3.1-8.3 2.8-19.5 7.6-31.2 16-5.9 4.3-10.9 8.6-15.1 12.8-6.9-6-13.5-10.8-19.6-14.8 6.8-4.4 15-9.1 24.4-13.4 9.4-4.4 18.3-7.6 26.1-9.9h.1l.9.6c4.2 2.4 8.4 5 12.5 7.5.8.3 1.5.7 2.2 1.1z" opacity="1" data-original="#d3dcfb56"></path><path fill="#d3dcfb" d="M234.5 343.2c-9.7 7.7-22.2 19.2-31 32.8-4.7 7.2-10.2 18-13.5 33-.1.1-.2.1-.4.1-.7-.4-1.4-.8-2.1-1.3-4.1-2.5-8.3-5.1-12.5-7.5l-.9-.6h-.1c.9-7.8 3.5-23.6 14.5-39.8 4.6-6.7 9.6-12.1 14.3-16.4 1.9-1.8 3.9-3.3 5.6-4.6 3.8-2.8 7.2-4.9 9.7-6.4 5.3 3.6 10.8 7.2 16.4 10.7z" opacity="1" data-original="#d3dcfb"></path><path fill="#fd995b" d="M318 503.1c-29.4-25.5-64.5-52.9-106-79.8-8-5.2-16-10.3-24.5-15.5-4.1-2.5-8.3-5.1-12.5-7.5l-.9-.6h-.1c-37-21.7-72.4-39-104.6-52.8L56 282.3c.2-.5.5-.9.8-1.4 6.6-11.7 15.2-20.9 24.1-26.5 15.7 28 37.8 60.8 69.1 93.5 59 61.8 123 94.6 165.7 111.7-4.6 12.3-6 25.4-1.4 36.7.3.7.6 1.4.9 2 .2.4.3.8.6 1.2.2.6.6 1.1.9 1.6.3.8.8 1.4 1.3 2z" opacity="1" data-original="#fd995b"></path><path fill="#e80054" d="m69.2 459.1-20.4 4.2c-4.4-21.2-8.7-42.4-13-63.6-8.7-42-17.3-84.1-25.9-126.2l16.4-3.4zM21.1 247.7 5.2 251l-2.8-13.6c-.3-1.5-.4-3-.4-4.4 0-8.1 4.5-15.4 11.5-19.2z" opacity="1" data-original="#e80054"></path><g fill="#d3dcfb"><path d="m26.3 270.1-16.4 3.4L5.2 251l15.9-3.3zM79.2 503.1l-30.4-39.8 20.4-4.2z" fill="#d3dcfb" opacity="1" data-original="#d3dcfb"></path></g></g></svg>