<svg xmlns="http://www.w3.org/2000/svg" version="1.1" xmlns:xlink="http://www.w3.org/1999/xlink" width="512" height="512" x="0" y="0" viewBox="0 0 512 512" style="enable-background:new 0 0 512 512" xml:space="preserve" class=""><g><g data-name="ESSENTIAL UI"><path fill="#4193d2" d="M262.67 489.87c-38.08.94-112.9-5-137.35-10.79-16.67-3.51-32.34-13.21-44.14-26.71s-19.26-30.19-21-47.06l-.06-.52A271.5 271.5 0 0 1 59 366.88s-.94-11.17 1.18-31.42v-.52A73 73 0 0 1 81.26 291a74.29 74.29 0 0 1 44.28-21.32c24.53-2.59 99.17-4 137.11-4s98.82 1.41 123.35 4A74.31 74.31 0 0 1 430.28 291a72.93 72.93 0 0 1 21.07 44v.51c2.12 20.26 1.84 31.37 1.84 31.38a360.41 360.41 0 0 1-1.83 38c0 .17 0 .34-.05.51-1.74 16.87-9.19 33.54-21 47.07s-27.48 23.19-44.15 26.7c-24.41 5.5-85.42 10.96-123.49 10.7z" opacity="1" data-original="#4193d2"></path><path fill="#48a4df" d="M374.61 268.72c-28.72-2-79-3.05-112-3.05-37.94 0-112.58 1.42-137.11 4A74.29 74.29 0 0 0 81.26 291a73 73 0 0 0-21.07 43.94v.52C58 355.71 59 366.87 59 366.88a271.5 271.5 0 0 0 1.17 37.91l.06.52a81.9 81.9 0 0 0 7.87 27.26 268 268 0 0 0 57.9 6.31c113.19 0 209.93-70.59 248.61-170.16z" opacity="1" data-original="#48a4df" class=""></path><circle cx="253.53" cy="118.59" r="118.59" fill="#edab7e" opacity="1" data-original="#edab7e" class=""></circle><path fill="#f9973e" d="M410.08 308.16A101.92 101.92 0 1 0 512 410.08a101.92 101.92 0 0 0-101.92-101.92z" opacity="1" data-original="#f9973e"></path><path fill="#ffffff" d="M454 429.08h-24.92V454a19 19 0 0 1-38 0v-24.92h-24.87a19 19 0 0 1 0-38h24.87V366.2a19 19 0 0 1 38 0v24.88H454a19 19 0 0 1 0 38z" opacity="1" data-original="#ffffff"></path></g></g></svg>