<svg xmlns="http://www.w3.org/2000/svg" version="1.1" xmlns:xlink="http://www.w3.org/1999/xlink" width="512" height="512" x="0" y="0" viewBox="0 0 53 53" style="enable-background:new 0 0 512 512" xml:space="preserve"><g><path fill="#e4e3ff" d="M41.44 6.77v39.46c0 2.36-1.91 4.27-4.27 4.27H6.84c-2.36 0-4.27-1.91-4.27-4.27V6.77c0-2.36 1.91-4.27 4.27-4.27h30.33c2.36 0 4.27 1.91 4.27 4.27z" opacity="1" data-original="#e4e3ff"></path><path fill="#d0d0f7" d="M41.44 6.77v39.46c0 2.36-1.91 4.27-4.27 4.27H6.84c-1.6 0-2.99-.87-3.71-2.17.38.12.79.18 1.21.18h30.33c2.36 0 4.27-1.91 4.27-4.27V4.78c0-.76-.2-1.48-.56-2.1a4.26 4.26 0 0 1 3.06 4.09z" opacity="1" data-original="#d0d0f7"></path><path fill="#d0d0f7" d="M41.44 23.93v22.3c0 2.36-1.91 4.27-4.27 4.27h-5.86c-4.71-2.34-7.96-7.2-7.96-12.8 0-7.87 6.42-14.28 14.3-14.28 1.31 0 2.59.18 3.79.51z" opacity="1" data-original="#d0d0f7"></path><path fill="#7979f7" d="M16.417 9.475v5.806a1.953 1.953 0 0 1-1.953 1.953h-5.81A1.953 1.953 0 0 1 6.7 15.28V9.475c0-1.079.874-1.953 1.953-1.953h5.81c1.078 0 1.953.874 1.953 1.953z" opacity="1" data-original="#7979f7"></path><path fill="#fff" d="M8.32 13.212a.304.304 0 0 1-.304-.303V11.06a.304.304 0 0 1 .607 0v1.849a.304.304 0 0 1-.303.303zM8.32 10.211a.304.304 0 0 1-.304-.303v-.121a.304.304 0 0 1 .607 0v.12a.304.304 0 0 1-.303.304z" opacity=".4"></path><path fill="#5e5eef" d="M16.416 9.476v5.803c0 1.08-.874 1.955-1.95 1.955H8.653a1.954 1.954 0 0 1-1.74-1.06c.267.137.57.214.895.214h5.81c1.077 0 1.951-.874 1.951-1.95V8.63c0-.324-.077-.628-.218-.895.63.32 1.064.98 1.064 1.74z"></path><path fill="#f9b938" d="M16.417 24.135v5.807a1.953 1.953 0 0 1-1.953 1.952h-5.81A1.953 1.953 0 0 1 6.7 29.942v-5.807c0-1.078.874-1.953 1.953-1.953h5.81c1.078 0 1.953.875 1.953 1.953z"></path><path fill="#fff" d="M8.32 27.873a.304.304 0 0 1-.304-.304V25.72a.304.304 0 0 1 .607 0v1.85a.304.304 0 0 1-.303.303zM8.32 24.872a.304.304 0 0 1-.304-.304v-.121a.304.304 0 0 1 .607 0v.121a.304.304 0 0 1-.303.304z" opacity=".4"></path><path fill="#ecb021" d="M16.416 24.137v5.803c0 1.08-.874 1.954-1.95 1.954H8.653a1.954 1.954 0 0 1-1.74-1.06c.267.137.57.214.895.214h5.81c1.077 0 1.951-.874 1.951-1.95V23.29c0-.324-.077-.627-.218-.894.63.32 1.064.979 1.064 1.74z"></path><path fill="#5bc658" d="M16.417 38.795v5.807a1.953 1.953 0 0 1-1.953 1.953h-5.81A1.953 1.953 0 0 1 6.7 44.602v-5.807c0-1.078.874-1.952 1.953-1.952h5.81c1.078 0 1.953.874 1.953 1.952z"></path><path fill="#fff" d="M8.32 42.533a.304.304 0 0 1-.304-.303v-1.85a.304.304 0 0 1 .607 0v1.85a.304.304 0 0 1-.303.303zM8.32 39.532a.304.304 0 0 1-.304-.304v-.12a.304.304 0 0 1 .607 0v.12a.304.304 0 0 1-.303.304z" opacity=".4"></path><path fill="#49a247" d="M16.416 38.797V44.6c0 1.08-.874 1.955-1.95 1.955H8.653a1.954 1.954 0 0 1-1.74-1.06c.267.137.57.214.895.214h5.81c1.077 0 1.951-.874 1.951-1.95V37.95c0-.323-.077-.627-.218-.894.63.32 1.064.98 1.064 1.74z"></path><path fill="#d0d0f7" d="M37.332 11.252H21.343a.6.6 0 0 1 0-1.2h15.989a.6.6 0 0 1 0 1.2zM37.332 14.705H21.343a.6.6 0 0 1 0-1.2h15.989a.6.6 0 0 1 0 1.2zM25.159 25.518h-4.316a.6.6 0 0 1 0-1.2h4.316a.6.6 0 0 1 0 1.2zM25.159 28.972h-4.316a.6.6 0 0 1 0-1.2h4.316a.6.6 0 0 1 0 1.2zM21.917 40.572h-1.074a.6.6 0 0 1 0-1.2h1.074a.6.6 0 0 1 0 1.2zM21.917 44.025h-1.074a.6.6 0 0 1 0-1.2h1.074a.6.6 0 0 1 0 1.2z"></path><path fill="#fc6559" d="M50.43 37.703c0 7.064-5.72 12.792-12.784 12.792-7.064 0-12.792-5.728-12.792-12.792s5.728-12.785 12.792-12.785S50.43 30.64 50.43 37.703z"></path><path fill="#fff" d="M27.483 42.754a.488.488 0 0 1-.445-.288 11.61 11.61 0 0 1 5.167-15.044.489.489 0 1 1 .457.863 10.636 10.636 0 0 0-4.733 13.78.489.489 0 0 1-.446.69zM36.057 27.165a.488.488 0 0 1-.069-.973c.79-.112 1.61-.148 2.398-.088a.489.489 0 1 1-.073.975 10.287 10.287 0 0 0-2.187.081.508.508 0 0 1-.07.005z" opacity=".3"></path><path fill="#f05543" d="M50.43 37.705c0 7.064-5.721 12.791-12.785 12.791a12.75 12.75 0 0 1-9.65-4.398 12.732 12.732 0 0 0 8.393 3.14c7.063 0 12.785-5.727 12.785-12.79 0-3.226-1.186-6.172-3.16-8.413a12.767 12.767 0 0 1 4.417 9.67z"></path><path fill="#fff" d="M47.156 37.704c0 5.255-4.256 9.517-9.511 9.517-5.256 0-9.517-4.262-9.517-9.517s4.261-9.512 9.517-9.512a9.508 9.508 0 0 1 9.511 9.512z"></path><path fill="#e4e3ff" d="M47.16 37.705c0 5.252-4.263 9.514-9.515 9.514a9.482 9.482 0 0 1-7.435-3.578 9.426 9.426 0 0 0 5.937 2.085c5.258 0 9.513-4.261 9.513-9.52a9.458 9.458 0 0 0-2.078-5.936 9.482 9.482 0 0 1 3.577 7.435z"></path><path fill="#231f20" d="M37.642 30.657a.375.375 0 0 1-.375-.375v-.375a.375.375 0 0 1 .75 0v.375a.375.375 0 0 1-.375.375zM33.93 31.652a.377.377 0 0 1-.325-.188l-.187-.324a.375.375 0 1 1 .65-.375l.188.324a.375.375 0 0 1-.326.563zM31.213 34.37a.375.375 0 0 1-.188-.05l-.325-.188a.375.375 0 1 1 .375-.65l.325.188a.375.375 0 0 1-.187.7zM30.218 38.082h-.376a.375.375 0 0 1 0-.75h.376a.375.375 0 0 1 0 .75zM30.887 41.981a.376.376 0 0 1-.187-.7l.325-.187a.375.375 0 1 1 .375.65l-.325.187a.375.375 0 0 1-.188.05zM33.743 44.836a.375.375 0 0 1-.325-.563l.187-.324a.376.376 0 0 1 .65.375l-.187.324a.377.377 0 0 1-.325.188zM37.642 44.88a.375.375 0 0 1-.375-.376v-.406a.375.375 0 0 1 .75 0v.406a.375.375 0 0 1-.375.375zM41.542 44.836a.377.377 0 0 1-.326-.188l-.187-.324a.375.375 0 1 1 .65-.375l.188.324a.375.375 0 0 1-.325.563zM44.396 41.981a.37.37 0 0 1-.187-.05l-.325-.188a.374.374 0 1 1 .375-.65l.325.188a.374.374 0 0 1-.188.7zM45.441 38.082h-.375a.375.375 0 0 1 0-.75h.375a.375.375 0 0 1 0 .75zM44.072 34.37a.374.374 0 0 1-.188-.7l.325-.188a.375.375 0 0 1 .375.65l-.325.187a.37.37 0 0 1-.187.05zM41.354 31.652a.375.375 0 0 1-.325-.563l.187-.324a.376.376 0 0 1 .65.375l-.187.324a.377.377 0 0 1-.325.188zM40.21 38.12h-2.536a.35.35 0 0 1-.35-.35v-4.78a.35.35 0 1 1 .7 0v4.43h2.187a.35.35 0 0 1 0 .7z"></path><path fill="#e24b40" d="M34.706 40.636a.25.25 0 0 1-.166-.436l2.936-2.616a.25.25 0 1 1 .332.373l-2.936 2.616a.248.248 0 0 1-.166.063z"></path><path fill="#231f20" d="M38.765 37.704a1.122 1.122 0 1 1-2.245.008 1.122 1.122 0 0 1 2.245-.008z"></path><path fill="#fff" d="M10.931 14.068a.752.752 0 0 1-.59-.288l-.865-1.103a.75.75 0 0 1 1.182-.925l.396.506 1.751-1.405a.75.75 0 0 1 .94 1.17l-2.344 1.88a.75.75 0 0 1-.47.165zM10.931 28.836a.752.752 0 0 1-.59-.288l-.865-1.104a.75.75 0 0 1 1.182-.924l.396.506 1.751-1.406a.75.75 0 0 1 .94 1.17L11.4 28.67a.75.75 0 0 1-.47.166zM10.931 43.109a.752.752 0 0 1-.59-.288l-.865-1.103a.751.751 0 0 1 1.182-.925l.395.506 1.752-1.406a.751.751 0 0 1 .94 1.17l-2.344 1.88a.75.75 0 0 1-.47.166z"></path><path fill="#fff" d="M4.603 28.41a.75.75 0 0 1-.75-.75v-9.406a.75.75 0 0 1 1.5 0v9.406a.75.75 0 0 1-.75.75zM4.603 16.239a.75.75 0 0 1-.75-.75v-.991a.75.75 0 0 1 1.5 0v.991a.75.75 0 0 1-.75.75z" opacity=".4"></path></g></svg>