<svg xmlns="http://www.w3.org/2000/svg" version="1.1" xmlns:xlink="http://www.w3.org/1999/xlink" width="512" height="512" x="0" y="0" viewBox="0 0 461.367 461.367" style="enable-background:new 0 0 512 512" xml:space="preserve" class=""><g><path d="M373.88 367.988v.122c-37.818 34.295-88.019 55.185-143.083 55.185-55.073 0-105.275-20.89-143.092-55.185v-.122c0-57.04 33.377-106.277 81.659-129.256 18.145 18.098 39.391 27.85 61.434 27.85 22.052 0 43.288-9.752 61.443-27.85 48.28 22.979 81.639 72.215 81.639 129.256z" style="" fill="#1ea6c6" data-original="#1ea6c6" class=""></path><path d="M230.797 58.571c43.71 0 79.148 35.429 79.148 79.139 0 43.719-35.438 103.504-79.148 103.504s-79.148-59.785-79.148-103.504c0-43.71 35.438-79.139 79.148-79.139z" style="" fill="#fcd09f" data-original="#fcd09f"></path><path d="M164.094 213.389a130.89 130.89 0 0 0 7.532 9.742l-7.897 3.756c-26.286 12.506-48.525 32.075-64.328 56.59a155.497 155.497 0 0 0-23.71 65.865c-28.562-7.785-54.38-22.22-75.691-41.546v-.103c0-49.705 29.087-92.609 71.157-112.638 15.813 15.775 34.323 24.272 53.527 24.272 12.581 0 24.871-3.644 36.291-10.595a128.43 128.43 0 0 0 3.119 4.657z" style="" fill="#ef806f" data-original="#ef806f" class=""></path><path d="M138.539 137.707c0 16.431 4.272 34.511 11.878 51.504-7.953 5.04-16.637 8.009-25.733 8.009-38.089 0-68.965-52.094-68.965-90.193 0-38.089 30.876-68.956 68.965-68.956 21.124 0 40.038 9.499 52.684 24.459-23.485 16.75-38.829 44.207-38.829 75.177z" style="" fill="#efc59c" data-original="#efc59c"></path><path d="M297.273 213.389a130.89 130.89 0 0 1-7.532 9.742l7.897 3.756c26.286 12.506 48.525 32.075 64.328 56.59a155.497 155.497 0 0 1 23.71 65.865c28.562-7.785 54.38-22.22 75.691-41.546v-.103c0-49.705-29.087-92.609-71.157-112.638-15.813 15.775-34.323 24.272-53.527 24.272-12.581 0-24.871-3.644-36.291-10.595a128.43 128.43 0 0 1-3.119 4.657z" style="" fill="#ef806f" data-original="#ef806f" class=""></path><path d="M322.828 137.707c0 16.431-4.272 34.511-11.878 51.504 7.953 5.04 16.637 8.009 25.733 8.009 38.089 0 68.965-52.094 68.965-90.193 0-38.089-30.876-68.956-68.965-68.956-21.124 0-40.038 9.499-52.684 24.459 23.485 16.75 38.829 44.207 38.829 75.177z" style="" fill="#efc59c" data-original="#efc59c"></path></g></svg>