<svg xmlns="http://www.w3.org/2000/svg" version="1.1" xmlns:xlink="http://www.w3.org/1999/xlink" width="512" height="512" x="0" y="0" viewBox="0 0 512 512" style="enable-background:new 0 0 512 512" xml:space="preserve" class=""><g><path fill="#98db7c" d="M359.65 10.776c75.923 36.871 132.861 106.679 152.245 190.853.533 2.312-1.022 4.586-3.374 4.897l-110.299 14.59c-1.967.26-3.808-.965-4.376-2.867-12.646-42.374-41.902-77.57-80.217-98.033-1.805-.963-2.564-3.155-1.782-5.046l42.327-102.332c.885-2.141 3.392-3.074 5.476-2.062z" opacity="1" data-original="#98db7c"></path><path fill="#ff4755" d="M236.34 100.928c13.09 0 25.824 1.551 38.047 4.434 1.914.451 3.876-.525 4.627-2.342l24.673-59.695c.918-2.222-.315-4.74-2.627-5.395a236.985 236.985 0 0 0-64.72-8.977C105.819 28.953 0 134.773 0 265.293s105.819 236.34 236.34 236.34c4.815 0 9.597-.15 14.346-.439 2.328-.141 4.054-2.217 3.749-4.53l-8.415-63.653c-.27-2.034-2.03-3.545-4.082-3.476a166.03 166.03 0 0 1-5.598.094c-90.771 0-164.336-73.565-164.336-164.336s73.565-164.365 164.336-164.365z" opacity="1" data-original="#ff4755" class=""></path><path fill="#48b3d8" d="m467.712 247.198-63.644 8.414a3.992 3.992 0 0 0-3.475 4.1c.07 1.85.112 3.71.112 5.581 0 74.428-49.495 137.301-117.366 157.528-1.876.559-3.05 2.42-2.794 4.36l8.448 64.017c.315 2.384 2.641 3.944 4.974 3.36C396.634 468.817 472.68 375.929 472.68 265.293c0-4.815-.15-9.597-.439-14.346-.141-2.328-2.217-4.054-4.53-3.749z" opacity="1" data-original="#48b3d8"></path><g fill="#ef4156"><path d="M307.934 193.7a8.014 8.014 0 0 0-11.333 0L164.746 325.553a8.014 8.014 0 0 0 11.333 11.333L307.934 205.03a8.013 8.013 0 0 0 0-11.332zM278.73 275.054c-17.992 0-32.629 14.637-32.629 32.63s14.637 32.628 32.63 32.628 32.628-14.637 32.628-32.629-14.637-32.63-32.629-32.63zm0 49.232c-9.154 0-16.603-7.447-16.603-16.603 0-9.155 7.449-16.603 16.603-16.603s16.603 7.448 16.603 16.603-7.448 16.603-16.603 16.603zM193.95 255.532c17.992 0 32.63-14.637 32.63-32.63 0-17.99-14.638-32.628-32.63-32.628-17.977 0-32.6 14.637-32.6 32.629 0 17.992 14.623 32.629 32.6 32.629zm0-49.232c9.155 0 16.603 7.448 16.603 16.603 0 9.155-7.448 16.603-16.603 16.603-9.139 0-16.575-7.448-16.575-16.603 0-9.155 7.436-16.603 16.575-16.603z" fill="#ef4156" opacity="1" data-original="#ef4156" class=""></path></g><path fill="#91cc75" d="M511.895 201.628C492.511 117.455 435.573 47.647 359.65 10.776c-2.084-1.012-4.59-.08-5.476 2.062l-16.155 39.056c64.145 30.62 112.321 89.304 128.63 160.17l41.871-5.538c2.354-.311 3.908-2.585 3.375-4.898z" opacity="1" data-original="#91cc75"></path><path fill="#ef4156" d="M236.34 64.263c-111.018 0-201.016 89.998-201.016 201.016s89.998 201.015 201.016 201.015c4.712 0 9.383-.175 14.014-.494l-4.334-32.789c-.27-2.034-2.03-3.545-4.082-3.476-1.856.063-3.722.094-5.598.094-90.772 0-164.336-73.565-164.336-164.336s73.565-164.365 164.336-164.365c13.091 0 25.824 1.551 38.047 4.434 1.914.451 3.876-.525 4.627-2.342l12.811-30.996c-17.624-5.05-36.237-7.76-55.485-7.76z" opacity="1" data-original="#ef4156" class=""></path><path fill="#40a9c6" d="M472.24 250.947c-.14-2.328-2.216-4.055-4.528-3.749l-30.85 4.079c.319 4.627.494 9.294.494 14.002 0 94.263-64.888 173.36-152.431 195.09l4.068 30.83c.315 2.383 2.641 3.944 4.973 3.359C396.634 468.817 472.68 375.929 472.68 265.293c0-4.815-.15-9.597-.44-14.346z" opacity="1" data-original="#40a9c6"></path></g></svg>