<svg xmlns="http://www.w3.org/2000/svg" version="1.1" xmlns:xlink="http://www.w3.org/1999/xlink" width="512" height="512" x="0" y="0" viewBox="0 0 512 512" style="enable-background:new 0 0 512 512" xml:space="preserve" class=""><g><path fill="#6ec17d" d="M411.793 427.34v14.216c0 13.485-130.096 70.444-143.582 70.444H123.559v-84.66c0-.835.01-1.669.041-2.493a83.498 83.498 0 0 1 5.913-28.649c6.531-16.39 18.08-30.246 32.739-39.662a83.074 83.074 0 0 1 16.153-8.077c7.108 2.462 171.422 2.462 178.541 0h.01c32.018 11.888 54.837 42.711 54.837 78.881z" opacity="1" data-original="#6ec17d"></path><path fill="#f1b986" d="M411.88 251.032h.202c17.341 0 31.392-14.063 31.392-31.392 0-17.341-14.051-31.404-31.392-31.404-.226 0-.451 0-.677.012H123.951c-.226-.012-.451-.012-.677-.012-17.341 0-31.392 14.063-31.392 31.404 0 17.329 14.051 31.392 31.392 31.392h.202" opacity="1" data-original="#f1b986"></path><path fill="#f1d0a5" d="M404.659 106.261c-91.321-8.853-182.641-8.853-273.962 0-7.087 56.78-9.174 113.56-6.262 170.339 2.12 41.333 35.194 74.232 76.535 76.184 44.472 2.1 88.943 2.1 133.415 0 41.341-1.952 74.415-34.851 76.535-76.184 2.913-56.779.826-113.559-6.261-170.339z" opacity="1" data-original="#f1d0a5"></path><path fill="#f1b986" d="M130.702 106.252a1418.162 1418.162 0 0 1 136.985-6.635c-23.119 0-46.238 2.234-69.357 6.703a1946.784 1946.784 0 0 0-3.174 171.97c.967 37.724 14.754 68.485 32.846 75.502-9.005-.245-18.024-.586-27.029-1.008-41.334-1.948-74.412-34.849-76.537-76.183-2.902-56.783-.818-113.566 6.266-170.349z" opacity="1" data-original="#f1b986"></path><path fill="#5ea570" d="M267.683 448.978a7.726 7.726 0 0 1-7.726-7.726v-78.958a7.726 7.726 0 1 1 15.452 0v78.958a7.727 7.727 0 0 1-7.726 7.726z" opacity="1" data-original="#5ea570"></path><path fill="#5ea570" d="M311.44 354.351c28.126 28.126 10.359 59.537 10.359 59.537-34.597-7.095-53.979-25.889-53.979-25.889s-19.382 18.794-53.979 25.889c0 0-17.767-31.411 10.359-59.537" opacity="1" data-original="#5ea570"></path><path fill="#f1d0a5" d="M178.395 409.353 123.95 426l-18.286-59.833L62.86 226.125a28.265 28.265 0 0 1-1.257-8.334c0-12.187 7.891-23.457 20.15-27.207 15.041-4.595 30.947 3.863 35.541 18.904l.505 1.648 11.105-4.687c3.379-1.422 6.985 1.535 6.222 5.141l-7.005 33.295 32.265 105.563z" opacity="1" data-original="#f1d0a5"></path><path fill="#f1b986" d="M75.82 220.757 137.384 421.9 123.96 426l-61.1-199.876a28.509 28.509 0 0 1-1.246-8.324c0-12.187 7.891-23.467 20.15-27.217a28.092 28.092 0 0 1 4.234-.948 28.53 28.53 0 0 0-11.425 22.798c0 2.751.402 5.553 1.247 8.324zM311.276 353.678c.018.224.018.448.018.673 0 18.582-19.523 33.648-43.611 33.648s-43.62-15.066-43.62-33.648c0-.224 0-.448.018-.673" opacity="1" data-original="#f1b986"></path><path fill="#f1d0a5" d="M354.476 441.555v23.792h-44.402c-23.12 0-41.863 18.743-41.863 41.863V512h119.166c13.486 0 24.419-10.933 24.419-24.419v-46.025h-57.32z" opacity="1" data-original="#f1d0a5"></path><path fill="#6ec17d" d="m178.395 409.353-41.011 12.537L123.95 426l-.35-1.154-17.936-58.679 13.475-3.873 41.249-11.847 1.864 6.088z" opacity="1" data-original="#6ec17d"></path><path fill="#5ea570" d="M123.559 427.34c0-.835.01-1.669.041-2.493l-17.935-58.679 13.475-3.874 10.374 33.903 7.871 25.693v.01s13.969 32.533 13.969 90.1H123.56v-84.66z" opacity="1" data-original="#5ea570"></path><path fill="#f1b986" d="M354.476 441.251h24.096v24.096h-24.096z" opacity="1" data-original="#f1b986"></path><path fill="#5ea570" d="M354.476 425.995h24.096v15.256h-24.096z" opacity="1" data-original="#5ea570"></path><path fill="#f1b986" d="M310.078 465.343h19.388c-23.128 0-41.866 18.749-41.866 41.867V512h-19.388v-4.79c-.001-23.118 18.738-41.867 41.866-41.867z" opacity="1" data-original="#f1b986"></path><path fill="#da4a54" d="M267.678 287.757c-15.455 0-29.725-9.024-36.353-22.989a7.726 7.726 0 1 1 13.96-6.626c4.083 8.604 12.873 14.162 22.393 14.162s18.309-5.559 22.392-14.162a7.727 7.727 0 0 1 13.961 6.625c-6.628 13.965-20.897 22.99-36.353 22.99z" opacity="1" data-original="#da4a54"></path><g fill="#454045"><path d="M200.836 189.202c-7.183 0-13.027 8.708-13.027 19.411s5.844 19.412 13.027 19.412 13.027-8.708 13.027-19.412-5.844-19.411-13.027-19.411zM334.521 189.202c-7.183 0-13.027 8.708-13.027 19.411s5.844 19.412 13.027 19.412 13.027-8.708 13.027-19.412-5.844-19.411-13.027-19.411z" fill="#454045" opacity="1" data-original="#454045"></path></g><path fill="#665e66" d="M343.74 153.478c-52.49 20.277-127.049 11.335-164.625-26.24 0 0-8.923 61.009-55.153 61.009l-20.16 6.78c-53.844-211.348 61-154.877 61-154.877 10.842-21.012 26.635-29.711 43.136-31.809a71.765 71.765 0 0 1 4.367-.404c.117 0 .233-.009.35-.018 11.622-.619 23.388 1.74 33.845 5.103a145.445 145.445 0 0 1 10.394 3.802c13.138 5.372 22.707 11.407 24.716 12.699.26.179.395.269.395.269C293.824 14.151 305.097 0 317.491 0c5.085 0 8.6 1.946 10.959 5.058 8.941 11.721 1.596 39.907 1.004 42.122l-.027.099c.009-.018.018-.054.036-.099l.063-.161C331.113 43.019 348.87 0 380.715 0c2.009 0 3.811.188 5.417.547 23.738 5.246 5.157 46.768 3.112 51.162l-.054.126c-.054.108-.09.188-.108.224 1.013-1.291 40.768-51.763 58.435-28.608.009.018.009.018.018.027 17.82 23.487-51.332 109.732-103.795 130z" opacity="1" data-original="#665e66"></path><g fill="#454045"><path d="M447.517 23.451h-.009c-8.932-8.923-39.871 33.199-58.453 28.635l.135-.251c-.054.108-.09.188-.108.224 1.013-1.291 40.768-51.763 58.435-28.608zM386.132.547c-13.419-3.048-25.857 22.494-32.885 40.625-3.398 8.768-13.925 12.287-21.918 7.332l-1.92-1.19.018-.036.027-.099h.009l.063-.161C331.113 43.019 348.87 0 380.715 0c2.009 0 3.811.188 5.417.547zM207.935 8.34c-38.401 6.771-52.911 94.809-28.823 118.897 0 0-8.923 61.009-55.153 61.009l-20.16 6.78c-53.844-211.348 61-154.877 61-154.877 10.843-21.012 26.635-29.71 43.136-31.809zM328.45 5.058c-13.497-13.497-22.492 55.718-52.875 66.802s-33.226-3.085-33.226-3.085v-.009c14.959-5.533 27.585-23.021 39.647-38.984l.009.009c.368-.493.735-.977 1.103-1.462.457-.619.933-1.238 1.399-1.847C295.43 12.214 305.976 0 317.491 0c5.085 0 8.6 1.946 10.959 5.058z" fill="#454045" opacity="1" data-original="#454045"></path></g></g></svg>