<svg xmlns="http://www.w3.org/2000/svg" version="1.1" xmlns:xlink="http://www.w3.org/1999/xlink" width="512" height="512" x="0" y="0" viewBox="0 0 497 497" style="enable-background:new 0 0 512 512" xml:space="preserve" class=""><g><circle cx="79.62" cy="230.244" r="36.448" fill="#ffcbbe" transform="rotate(-76.7 79.65 230.307)" opacity="1" data-original="#ffcbbe" class=""></circle><circle cx="417.38" cy="230.244" r="36.448" fill="#ffcbbe" transform="rotate(-45 417.369 230.338)" opacity="1" data-original="#ffcbbe" class=""></circle><path fill="#f1b260" d="M366.822 373.332c10.186 17.513 16.018 37.869 16.018 59.588v35.29c0 15.9-12.89 28.79-28.79 28.79H333.5l-7.2-6.84-7.2 6.84H177.9l-7.2-5.22-7.2 5.22h-20.55c-15.9 0-28.79-12.89-28.79-28.79v-35.29c0-21.717 5.832-42.077 16.017-59.589L248.5 342.795z" opacity="1" data-original="#f1b260" class=""></path><path fill="#eb9c32" d="M130.177 373.331c30.426 30.021 72.203 48.566 118.323 48.566s87.896-18.544 118.322-48.564a119.1 119.1 0 0 0-13.892-19.193c-21.74-24.5-53.47-39.94-88.81-39.94h-31.24c-35.33 0-67.06 15.44-88.81 39.94a118.896 118.896 0 0 0-13.893 19.191z" opacity="1" data-original="#eb9c32" class=""></path><path fill="#ffddcf" d="M208.871 73.093a162.37 162.37 0 0 1 39.629-4.881c89.488 0 162.033 72.545 162.033 162.033 0 66.872-40.51 124.283-98.328 149.03l-63.707 6.158-122.921-100.205 3.539-158.737z" opacity="1" data-original="#ffddcf"></path><path fill="#ffcbbe" d="M189.69 167.969c0-33.655 6.832-65.714 19.183-94.868-70.331 17.68-122.406 81.327-122.406 157.143 0 89.488 72.545 162.033 162.033 162.033 22.616 0 44.147-4.64 63.702-13.01C239.003 337.3 189.69 258.395 189.69 167.969z" opacity="1" data-original="#ffcbbe" class=""></path><path fill="#eb9e8f" d="M192.226 203.115c8.868-1.402 17.622-3.327 25.913-6.062 35.385-11.671 60.401-41.932 80.263-48.355 10.417-3.369 22.074-1.123 30.003 5.785l66.915 52.102c7.308 5.69 18.618 4.01 23.467-3.487 19.065-29.478 19.065-65.796 0-95.274l-38.928-60.186C360.794 18.159 325.559 0 287.427 0h-30.488l-57.604 20.116-66.23 120.465z" opacity="1" data-original="#eb9e8f" class=""></path><path fill="#e38978" d="M189.69 167.969c0-65.132 25.583-124.288 67.249-167.969h-47.366c-38.131 0-73.366 18.159-92.432 47.637l-38.927 60.186c-19.066 29.478-19.066 65.796 0 95.273 5.491 8.49 17.003 12.248 27.333 8.917 17.933-5.783 53.124-3.601 86.679-8.906a245.117 245.117 0 0 1-2.536-35.138z" opacity="1" data-original="#e38978"></path><ellipse cx="248.5" cy="337.817" fill="#4f5c6f" rx="15.546" ry="17.396" opacity="1" data-original="#4f5c6f"></ellipse><path fill="#ceeafb" d="M206.641 304.711h.442c7.557 0 14.879-2.194 21.249-6.03 5.825-3.507 12.745-5.54 20.168-5.54s14.342 2.033 20.168 5.54c6.37 3.836 13.692 6.03 21.249 6.03h77.891c24.104 0 43.645-18.437 43.645-41.181v-40.572c0-22.744-19.54-41.181-43.645-41.181H171.05l-39.304 23.621 25.751 87.803z" opacity="1" data-original="#ceeafb" class=""></path><path fill="#a3defe" d="M85.547 222.959v40.572c0 22.744 19.54 41.181 43.645 41.181h77.449c-20.439-37.157-32.999-78.79-35.591-122.934h-41.858c-24.104-.001-43.645 18.437-43.645 41.181z" opacity="1" data-original="#a3defe"></path><path fill="#f9f29d" d="M349.364 270.462h-52.999c-9.57 0-17.328-7.758-17.328-17.328v-29.13a7.978 7.978 0 0 1 7.978-7.978h71.7a7.978 7.978 0 0 1 7.978 7.978v29.13c-.001 9.57-7.759 17.328-17.329 17.328z" opacity="1" data-original="#f9f29d"></path><path fill="#ec9ed2" d="M175.116 216.026h32.271c5.841 0 10.576 4.468 10.576 9.979v22.782c0 11.971-10.285 21.675-22.972 21.675h-4.434l-22.748-5.699-9.362-38.4z" opacity="1" data-original="#ec9ed2" class=""></path><path fill="#e889c8" d="M175.116 216.026h-34.233c-5.841 0-10.576 4.468-10.576 9.979v22.782c0 11.971 10.285 21.675 22.972 21.675h37.278a288.8 288.8 0 0 1-15.441-54.436z" opacity="1" data-original="#e889c8"></path><g fill="#eb9c32"><path d="M333.8 453.35v41.55c0 .73-.1 1.43-.3 2.1h-14.4c-.2-.67-.3-1.37-.3-2.1v-41.55c0-4.14 3.36-7.5 7.5-7.5s7.5 3.36 7.5 7.5zM178.2 453.35v41.55c0 .73-.1 1.43-.3 2.1h-14.4c-.2-.67-.3-1.37-.3-2.1v-41.55c0-4.14 3.35-7.5 7.5-7.5 4.14 0 7.5 3.36 7.5 7.5z" fill="#eb9c32" opacity="1" data-original="#eb9c32" class=""></path></g></g></svg>