<svg xmlns="http://www.w3.org/2000/svg" version="1.1" xmlns:xlink="http://www.w3.org/1999/xlink" width="512" height="512" x="0" y="0" viewBox="0 0 64 64" style="enable-background:new 0 0 512 512" xml:space="preserve" class=""><g><path fill="#9494a0" d="M35.738 7.313h-7.476V4.19a3.738 3.738 0 0 1 7.476 0v3.123z" opacity="1" data-original="#9494a0"></path><circle cx="32" cy="3.882" r=".914" fill="#3b3b44" opacity="1" data-original="#3b3b44"></circle><path fill="#f7bb90" d="M57.073 63.548H6.927A6.927 6.927 0 0 1 0 56.621V14.24a6.927 6.927 0 0 1 6.927-6.927h50.146A6.927 6.927 0 0 1 64 14.24V56.62a6.927 6.927 0 0 1-6.927 6.927z" opacity="1" data-original="#f7bb90" class=""></path><path fill="#f9ddcd" d="M6.927 58.062a1.443 1.443 0 0 1-1.44-1.44V14.238c0-.795.646-1.441 1.44-1.441h50.145c.797 0 1.443.646 1.443 1.441v42.382c0 .795-.646 1.441-1.443 1.441z" opacity="1" data-original="#f9ddcd" class=""></path><path d="M63.999 14.246v42.368c0 3.84-3.109 6.93-6.93 6.93h-26.15c6.456-5.577 17.537-17.664 17.409-34.925-.073-9.49-3.493-16.951-6.071-21.303h14.811c3.822 0 6.93 3.09 6.93 6.93z" opacity="1" fill="#00000015" data-original="#00000015"></path><path fill="#f98143" d="m52.346 49.106-11.874-.777a2.078 2.078 0 0 1-1.938-2.21l.777-11.873a2.078 2.078 0 0 1 2.209-1.938l11.874.776a2.078 2.078 0 0 1 1.938 2.21l-.777 11.874a2.078 2.078 0 0 1-2.209 1.938z" opacity="1" data-original="#f98143"></path><path fill="#c94b24" d="M50.836 39.307c-.021 0-.04 0-.06-.002l-7.613-.498a.915.915 0 0 1-.853-.972c.034-.505.514-.896.971-.853l7.613.498a.915.915 0 0 1-.058 1.827zM50.502 44.42c-.021 0-.04 0-.06-.003l-7.613-.498a.915.915 0 0 1-.853-.971c.034-.506.516-.883.971-.854l7.613.498a.915.915 0 0 1-.058 1.827z" opacity="1" data-original="#c94b24"></path><path d="m55.332 35.294-.777 11.878a2.08 2.08 0 0 1-2.215 1.926l-6.003-.393c1.762-1.442 4.54-4.412 4.757-8.85.173-3.215-1.074-5.715-1.903-7.052l4.197.274a2.084 2.084 0 0 1 1.944 2.217z" opacity="1" fill="#00000015" data-original="#00000015"></path><circle cx="47.459" cy="32.668" r="2.363" fill="#f7524b" opacity="1" data-original="#f7524b"></circle><path fill="#53c496" d="m31.348 36.54-11.79-1.617a2.078 2.078 0 0 1-1.776-2.341l1.618-11.79a2.078 2.078 0 0 1 2.341-1.775l11.79 1.617a2.078 2.078 0 0 1 1.776 2.341l-1.618 11.79a2.078 2.078 0 0 1-2.341 1.776z" opacity="1" data-original="#53c496"></path><path fill="#2b8257" d="M30.602 26.661a.85.85 0 0 1-.125-.009l-7.558-1.036a.916.916 0 0 1 .248-1.813l7.558 1.037a.916.916 0 0 1-.123 1.82zM29.905 31.738a.85.85 0 0 1-.125-.01l-7.558-1.037a.913.913 0 0 1-.781-1.03.904.904 0 0 1 1.03-.78l7.557 1.037a.914.914 0 0 1-.123 1.82z" opacity="1" data-original="#2b8257"></path><path d="m35.307 22.98-1.618 11.793a2.08 2.08 0 0 1-2.346 1.764l-5.96-.818c1.86-1.313 4.841-4.079 5.373-8.49.401-3.194-.666-5.777-1.398-7.17l4.167.572a2.084 2.084 0 0 1 1.782 2.349z" opacity="1" fill="#00000015" data-original="#00000015"></path><circle cx="27.64" cy="19.797" r="2.363" fill="#f7524b" opacity="1" data-original="#f7524b"></circle><path fill="#79b6ef" d="m26.578 49.867-11.695 2.195a2.078 2.078 0 0 1-2.426-1.66l-2.195-11.694a2.078 2.078 0 0 1 1.659-2.426l11.695-2.195a2.078 2.078 0 0 1 2.426 1.659l2.195 11.695a2.078 2.078 0 0 1-1.66 2.426z" opacity="1" data-original="#79b6ef" class=""></path><path fill="#5679bc" d="M14.956 42.185a.915.915 0 0 1-.168-1.812l7.497-1.408a.913.913 0 1 1 .337 1.796l-7.496 1.408a.917.917 0 0 1-.17.016zM15.9 47.22a.915.915 0 0 1-.167-1.812l7.498-1.407a.913.913 0 1 1 .338 1.796l-7.499 1.408a.916.916 0 0 1-.17.016z" opacity="1" data-original="#5679bc" class=""></path><path d="m26.043 35.75 2.196 11.7a2.08 2.08 0 0 1-1.667 2.415l-5.913 1.11c1.349-1.835 3.303-5.402 2.411-9.755-.63-3.157-2.459-5.27-3.594-6.358l4.134-.776a2.084 2.084 0 0 1 2.433 1.664z" opacity="1" fill="#00000015" data-original="#00000015"></path><circle cx="17.763" cy="35.156" r="2.363" fill="#f7524b" opacity="1" data-original="#f7524b"></circle></g></svg>