<svg xmlns="http://www.w3.org/2000/svg" version="1.1" xmlns:xlink="http://www.w3.org/1999/xlink" width="512" height="512" x="0" y="0" viewBox="0 0 512 512" style="enable-background:new 0 0 512 512" xml:space="preserve" class=""><g><path fill="#9acd68" d="M466.423 377.531H372.15v-94.302a6 6 0 0 0-6-6c-2.697 0-5.371.103-8.019.301V138.494a6 6 0 0 0-6-6h-52.185a6 6 0 0 0-6 6V305.59a106.865 106.865 0 0 0-23.913 32.564V212.681a6 6 0 0 0-6-6h-52.184a6 6 0 0 0-6 6v158.851h-23.914V174.11a6 6 0 0 0-6-6h-52.184a6 6 0 0 0-6 6v197.422H93.837V252.565a6 6 0 0 0-6-6H35.683a6 6 0 0 0-6 6v118.967h-9.684c-6.627 0-12 5.373-12 12s5.373 12 12 12h240.528c5.981 52.986 51.063 94.302 105.622 94.302 58.6 0 106.273-47.687 106.273-106.302a6 6 0 0 0-6-6z" opacity="1" data-original="#9acd68"></path><path fill="#f5b945" d="M260.528 371.531a105.471 105.471 0 0 1 9.505-33.364V212.679a6 6 0 0 0-6-6h-52.184a6 6 0 0 0-6 6V371.53h54.678z" opacity="1" data-original="#f5b945"></path><path fill="#4fc0e8" d="M358.131 277.532V138.493a6 6 0 0 0-6-6h-52.185a6 6 0 0 0-6 6v167.099c17.134-15.887 39.495-26.209 64.185-28.06z" opacity="1" data-original="#4fc0e8"></path><path fill="#eb5463" d="M93.838 371.531V252.564a6 6 0 0 0-6-6H35.684a6 6 0 0 0-6 6v118.967z" opacity="1" data-original="#eb5463"></path><path fill="#757575" d="M346.055 22.167h-32.181c-6.627 0-12 5.373-12 12s5.373 12 12 12h3.21l-85.376 85.375-65.889-59.274a12 12 0 0 0-16.075.022L33.711 177.243c-4.915 4.446-5.296 12.034-.85 16.949a11.969 11.969 0 0 0 8.903 3.95c2.87 0 5.75-1.023 8.046-3.101L157.815 97.35l66.304 59.648c4.743 4.268 11.998 4.076 16.511-.436l93.425-93.424v3.181c0 6.627 5.373 12 12 12s12-5.373 12-12V34.167c0-6.627-5.373-12-12-12z" opacity="1" data-original="#757575"></path><g fill="#8bb758"><path d="M355.226 283.229v94.302h16.924v-94.302a6 6 0 0 0-6-6c-4.671 0-9.272.306-13.787.893a5.99 5.99 0 0 1 2.863 5.107zM466.423 377.531h-16.924a6 6 0 0 1 6 6c0 55.767-43.154 101.638-97.812 105.965 2.792.221 5.614.337 8.463.337 58.6 0 106.273-47.687 106.273-106.302a6 6 0 0 0-6-6z" fill="#8bb758" opacity="1" data-original="#8bb758"></path></g><path fill="#eb5463" d="M397.727 245.651a6 6 0 0 0-6 6v100.302a6 6 0 0 0 6 6H498a6 6 0 0 0 6-6c0-58.615-47.674-106.302-106.273-106.302z" opacity="1" data-original="#eb5463"></path><path fill="#db4f64" d="M397.727 245.651c-1.152 0-2.225.33-3.138.893 52.11 6.782 92.488 51.466 92.488 105.409a6 6 0 0 1-6 6h16.924a6 6 0 0 0 6-6c0-58.615-47.674-106.302-106.273-106.302z" opacity="1" data-original="#db4f64"></path><path fill="#37adcc" d="M341.131 138.494v141.712a105.76 105.76 0 0 1 17-2.673V138.494a6 6 0 0 0-6-6h-17a6 6 0 0 1 6 6z" opacity="1" data-original="#37adcc"></path><path fill="#eaab3b" d="M253.033 212.68v158.851h7.495a105.471 105.471 0 0 1 9.505-33.364V212.679a6 6 0 0 0-6-6h-17a6 6 0 0 1 6 6z" opacity="1" data-original="#eaab3b"></path><path fill="#db4f64" d="M76.838 252.564v118.967h17V252.564a6 6 0 0 0-6-6h-17a6 6 0 0 1 6 6z" opacity="1" data-original="#db4f64"></path><path fill="#8bb758" d="M164.936 174.109v197.422h17V174.109a6 6 0 0 0-6-6h-17a6 6 0 0 1 6 6z" opacity="1" data-original="#8bb758"></path><path fill="#757575" d="M259.847 383.531c0-4.057.236-8.06.681-12H20c-6.627 0-12 5.373-12 12s5.373 12 12 12h240.528c-.445-3.94-.681-7.943-.681-12z" opacity="1" data-original="#757575"></path></g></svg>