<svg xmlns="http://www.w3.org/2000/svg" viewBox="0 0 512 512"><g><path fill="#ffb833" d="M329.91 48.41a27.84 27.84 0 017 4.67 29.21 29.21 0 018.49 14.65 21 21 0 0115.71-20 20 20 0 01-9.55-4A20.76 20.76 0 01344.14 31a18.37 18.37 0 01-3.14 10 18.67 18.67 0 01-11.09 7.41zM60 207.22a21.12 21.12 0 015.36 3.57 22.2 22.2 0 016.5 11.21 16.55 16.55 0 014.06-10.39 16.25 16.25 0 018-4.87 15.39 15.39 0 01-7.31-3.09 15.86 15.86 0 01-5.68-9.74 14 14 0 01-2.43 7.63 14.34 14.34 0 01-8.5 5.68zM352.09 181.52a20.92 20.92 0 015.35 3.57 22.31 22.31 0 016.5 11.2 16.43 16.43 0 014.06-10.39 16.19 16.19 0 018-4.9 15.39 15.39 0 01-7.3-3.08 15.88 15.88 0 01-5.7-9.72 13.92 13.92 0 01-2.43 7.63 14.33 14.33 0 01-8.48 5.69zM87.39 232.54h342.08V420.9H87.39z"/><path fill="#ff535c" d="m248.42 292.76-161-60.22 177.13-55.47 164.94 55.47z"/><path fill="#ffb833" d="m248.42 481-161-60.1 177.14-55.59 164.86 55.59z"/><path fill="#ffdb99" d="M216.06 383.77 53.22 324.19l34.17-91.61L249.26 293zm68.6-2.04 174.12-66.43-29.32-82.77-180.37 60.12 35.57 89.08z"/><path fill="#383333" d="M269.06 285.6a.5.5 0 01-.5-.48L264 177.1a.5.5 0 01.48-.52.48.48 0 01.52.47l4.53 108a.5.5 0 01-.48.52zm-20.64 195.9a.5.5 0 01-.5-.5l.67-188.35a.51.51 0 01.5-.5.5.5 0 01.49.51L248.92 481a.5.5 0 01-.5.5z"/><path fill="#fff3e3" d="m327 441.26-60.25 13.82c-2 .46-4.1-1.9-4.21-4.82l-1.75-48c-.08-2.14.94-3.87 2.44-4.15l61.09-11.39c2.05-.38 4.07 2 4.13 4.94l.91 45.58c.05 2.04-.92 3.69-2.36 4.02z"/><path fill="#fff" d="M84.59 260.44a2.64 2.64 0 01-.73-.11 2.51 2.51 0 01-1.67-3.12c5.81-19.07 8.74-19.61 10-19.85 2.28-.44 10.43 2.45 24.2 8.56a2.5 2.5 0 11-2 4.57c-8.22-3.64-18.08-7.57-21-8.13-1.49 2-4.43 9.72-6.43 16.31a2.51 2.51 0 01-2.37 1.77zm125.8 117.56c-4.76 0-11.67-2.71-17.55-5.52a2.5 2.5 0 112.16-4.48c6.93 3.31 14.38 5.61 16.27 5 2.06-3.7 4.39-11.47 4.42-11.55a2.5 2.5 0 014.79 1.43c-.11.35-2.63 8.76-5 12.87-.96 1.63-2.77 2.25-5.09 2.25zm-8.8-96.59a2.5 2.5 0 01-.88-.17l-12.33-4.65a2.5 2.5 0 111.76-4.68l12.33 4.66a2.5 2.5 0 01-.88 4.84zm-123.11 49.41a2.48 2.48 0 01-.88-.16l-8.43-3.2a2.5 2.5 0 011.77-4.68l8.43 3.2a2.5 2.5 0 01-.89 4.84zm51.52-102.59a2.5 2.5 0 01-.74-4.89l29.9-9.34a2.5 2.5 0 011.5 4.77l-29.86 9.39a2.51 2.51 0 01-.8.07zm247.6-4.7a2.54 2.54 0 01-.81-.13l-19.88-6.8a2.5 2.5 0 011.62-4.73l19.88 6.8a2.5 2.5 0 01-.81 4.86zm-89.09 152.83a3.25 3.25 0 01-2.55-.87c-1.22-1.12-3.4-6.07-6.46-14.73a2.5 2.5 0 114.71-1.67 130.73 130.73 0 004.89 12.25 47 47 0 008.63-2.89 2.5 2.5 0 112 4.59c-6.07 2.59-9.35 3.32-11.22 3.32zm31.85-99.23a2.5 2.5 0 01-.85-4.86l30.95-11.07a2.5 2.5 0 011.69 4.71L321.2 277a2.48 2.48 0 01-.84.13zm131.3 32.5a2.49 2.49 0 01-2.37-1.71l-5.2-15.56a2.5 2.5 0 014.74-1.58l5.2 15.56a2.5 2.5 0 01-1.58 3.16 2.42 2.42 0 01-.79.13zm-353.74 113.19a2.45 2.45 0 01-.75-.12c-6.17-1.95-6.74-2.7-7.17-3.28s-.88-1.26-1-12.47a2.5 2.5 0 012.47-2.53 2.49 2.49 0 012.5 2.47c0 3.53.17 7.68.33 9.51 1 .42 2.82 1.06 4.34 1.53a2.5 2.5 0 01-.75 4.89zm144.18 6.03a2.49 2.49 0 01-2.5-2.5v-36.06a2.5 2.5 0 015 0v36.06a2.49 2.49 0 01-2.5 2.5zm169.09-5.45a2.5 2.5 0 01-.81-4.86 77.61 77.61 0 0010.53-4.27c.35-2.91.15-14.55-.26-24.93a2.49 2.49 0 012.39-2.6 2.54 2.54 0 012.6 2.4c1 25.72.06 27.2-.42 27.91s-1.47 2.21-13.22 6.22a2.54 2.54 0 01-.81.13z"/><rect width="198.5" height="154.5" x="115.37" y="49.37" fill="#aaeeea" rx="16.95" transform="rotate(180 214.62 126.62)"/><path fill="#aaeeea" d="M313.87 166.51q.3 33.13.61 66.27a5.66 5.66 0 01-9.22 4.45l-47.57-38.56z"/><rect width="23.48" height="105.51" x="202.88" y="73.86" fill="#00ccc1" rx="9.11" transform="rotate(45 214.653 126.586)"/><rect width="23.48" height="105.51" x="202.88" y="73.86" fill="#00ccc1" rx="9.11" transform="rotate(-45 214.62 126.667)"/></g></svg>
