<svg xmlns="http://www.w3.org/2000/svg" version="1.1" xmlns:xlink="http://www.w3.org/1999/xlink" width="512" height="512" x="0" y="0" viewBox="0 0 512 512" style="enable-background:new 0 0 512 512" xml:space="preserve" class=""><g><g fill-rule="evenodd" clip-rule="evenodd"><path fill="#9589e8" d="M256.014 511.997c132.236 0 240.066-107.83 240.066-240.066S388.25 31.836 256.014 31.836 15.92 139.694 15.92 271.93s107.858 240.067 240.094 240.067z" opacity="1" data-original="#9589e8" class=""></path><path fill="#5a5b5e" d="M138.121 172.86h235.757V73.307c0-28.46-23.272-51.761-51.761-51.761-10.318 0-19.984 3.09-28.091 8.362C278.152 11.624 254.766.002 228.773.002h-4.195c-47.565 0-86.457 38.892-86.457 86.428z" opacity="1" data-original="#5a5b5e" class=""></path><path fill="#e3a98e" d="M143.564 151.714h224.872c15.591 0 28.346 12.756 28.346 28.346 0 15.591-12.756 28.346-28.346 28.346H143.564c-15.591 0-28.346-12.756-28.346-28.346-.001-15.591 12.755-28.346 28.346-28.346z" opacity="1" data-original="#e3a98e" class=""></path><path fill="#5a5b5e" d="m256.014 305.266 139.238 74.778c21.628 11.622 34.498 32.428 35.235 56.778-43.767 46.29-105.732 75.175-174.472 75.175s-130.706-28.885-174.472-75.175c.737-24.35 13.578-45.156 35.235-56.778z" opacity="1" data-original="#5a5b5e" class=""></path><path fill="#eeeeee" d="m256.014 305.266 45.241 24.293v178.157a240.506 240.506 0 0 1-45.241 4.281 240.202 240.202 0 0 1-45.241-4.281V329.559z" opacity="1" data-original="#eeeeee"></path><path fill="#f9b895" d="M210.773 259.288h90.482v122.06c-13.266 7.795-28.743 12.274-45.241 12.274-16.526 0-31.975-4.479-45.241-12.274v-122.06z" opacity="1" data-original="#f9b895" class=""></path><path fill="#e3a98e" d="M301.255 311.842c-13.975 5.726-29.253 8.901-45.241 8.901s-31.266-3.175-45.241-8.901v-52.554h90.482z" opacity="1" data-original="#e3a98e" class=""></path><path fill="#f9b895" d="M352.505 130.765v69.988c0 53.065-43.427 96.52-96.491 96.52-53.093 0-96.52-43.455-96.52-96.52v-67.238c45.071-1.474 84.699-20.098 109.332-48.047 19.872 22.507 49.409 38.948 83.679 45.297z" opacity="1" data-original="#f9b895" class=""></path></g><path fill="#f7f7f6" d="M291.646 236.413a35.472 35.472 0 0 1-10.46 25.2c-6.435 6.435-15.335 10.431-25.172 10.431-9.836 0-18.737-3.997-25.2-10.431a35.564 35.564 0 0 1-10.431-25.2c0-3.43 2.806-6.236 6.236-6.236h58.762c3.458-.001 6.265 2.806 6.265 6.236z" opacity="1" data-original="#f7f7f6"></path><path fill="#5a5b5e" d="M191.753 154.746a6.218 6.218 0 0 1-6.236-6.236 6.236 6.236 0 0 1 6.236-6.236h23.074a6.236 6.236 0 0 1 6.236 6.236 6.218 6.218 0 0 1-6.236 6.236zm105.42 0a6.236 6.236 0 0 1-6.236-6.236c0-3.43 2.806-6.236 6.236-6.236h23.102c3.43 0 6.236 2.806 6.236 6.236a6.236 6.236 0 0 1-6.236 6.236z" opacity="1" data-original="#5a5b5e" class=""></path><path fill="#404041" d="M197.054 167.389a6.236 6.236 0 0 1 6.236-6.236 6.218 6.218 0 0 1 6.236 6.236v11.225a6.218 6.218 0 0 1-6.236 6.236 6.236 6.236 0 0 1-6.236-6.236zm105.42 0a6.236 6.236 0 0 1 6.236-6.236c3.458 0 6.264 2.778 6.264 6.236v11.225c0 3.458-2.806 6.236-6.264 6.236a6.236 6.236 0 0 1-6.236-6.236z" opacity="1" data-original="#404041"></path></g></svg>