<svg xmlns="http://www.w3.org/2000/svg" version="1.1" xmlns:xlink="http://www.w3.org/1999/xlink" width="512" height="512" x="0" y="0" viewBox="0 0 512 512" style="enable-background:new 0 0 512 512" xml:space="preserve" class=""><g><path d="M512 278.41c0 5.03-.16 10.03-.47 15-3.57 56.76-27.38 109.61-67.95 150.18-40.56 40.56-93.41 64.37-150.17 67.94-4.97.31-9.97.47-15 .47-105.875 0-193.54-69.989-222.9-163.53-1.43-4.55-.61-9.52 2.22-13.37 2.82-3.85 7.31-6.12 12.09-6.12h88.71c5.48 0 10.52 2.99 13.16 7.79 21.37 39.02 62.26 63.26 106.72 63.26 5.08 0 10.08-.31 15-.93 55.09-6.8 98.89-50.6 105.69-105.69.62-4.92.93-9.92.93-15 0-44.45-24.24-85.35-63.26-106.72-4.8-2.64-7.79-7.68-7.79-13.16V69.82c0-4.78 2.27-9.27 6.12-12.09 3.85-2.83 8.82-3.65 13.37-2.22C441.923 84.843 512 172.445 512 278.41z" style="" fill="#fad557" data-original="#fad557"></path><path d="M511.53 293.41c.31-4.97.47-9.97.47-15 0-105.965-70.077-193.567-163.53-222.9-4.55-1.43-9.52-.61-13.37 2.22a14.978 14.978 0 0 0-6.12 12.09v88.71c0 5.48 2.99 10.52 7.79 13.16 39.02 21.37 63.26 62.27 63.26 106.72 0 5.08-.31 10.08-.93 15-3.4 27.545-16.05 52.268-34.736 70.954l79.221 79.221c40.567-40.569 64.375-93.417 67.945-150.175z" style="" fill="#fcb12b" data-original="#fcb12b"></path><path d="M278.406 0C204.042 0 134.128 28.959 81.543 81.544 28.959 134.128 0 204.042 0 278.406c0 8.284 6.716 15 15 15h263.406c8.284 0 15-6.716 15-15V15c0-8.284-6.716-15-15-15z" style="" fill="#7feca0" data-original="#7feca0" class=""></path><path d="M293.41 399.1v112.43c-4.97.31-9.97.47-15 .47-105.875 0-193.54-69.989-222.9-163.53-1.43-4.55-.61-9.52 2.22-13.37 2.82-3.85 7.31-6.12 12.09-6.12h88.71c5.48 0 10.52 2.99 13.16 7.79 21.37 39.02 62.26 63.26 106.72 63.26 5.08 0 10.08-.31 15-.93z" style="" fill="#72a3fc" data-original="#72a3fc"></path><path d="M293.406 15c0-8.284-6.716-15-15-15-74.364 0-144.278 28.959-196.862 81.544l207.469 207.469a14.953 14.953 0 0 0 4.393-10.606V15z" style="" fill="#3ad475" data-original="#3ad475" class=""></path><path d="M336.77 171.69c39.02 21.37 63.26 62.27 63.26 106.72 0 5.08-.31 10.08-.93 15h112.43c.31-4.97.47-9.97.47-15 0-105.965-70.077-193.567-163.53-222.9-4.55-1.43-9.52-.61-13.37 2.22a14.978 14.978 0 0 0-6.12 12.09v88.71c0 5.48 2.99 10.52 7.79 13.16z" style="" fill="#fc495c" data-original="#fc495c" class=""></path></g></svg>