<svg xmlns="http://www.w3.org/2000/svg" version="1.1" xmlns:xlink="http://www.w3.org/1999/xlink" width="512" height="512" x="0" y="0" viewBox="0 0 512 512" style="enable-background:new 0 0 512 512" xml:space="preserve" class=""><g><circle cx="256" cy="256" r="256" fill="#80e29d" opacity="1" data-original="#80e29d" class=""></circle><path fill="#595959" d="M431.2 442.66C385.4 485.65 323.78 512 256 512a256.5 256.5 0 0 1-45.5-4.04c-49.68-8.91-94.39-32.16-129.7-65.3 20.39-97.72-4.98-173.1-10.35-227.33-.01-.03-.01-.06-.01-.09l73.25-8.15L256 194.6l185.55 20.64h.01c-5.35 54.24-30.76 129.65-10.36 227.42z" opacity="1" data-original="#595959"></path><path fill="#595959" d="M443.58 187.59c0 9.39-.69 18.63-2.03 27.65-13.36 90.49-91.35 159.93-185.56 159.93-8.3 0-16.48-.54-24.5-1.59-82.92-10.81-148.82-75.78-161.04-158.25-.01-.03-.01-.06-.01-.09-1.34-9.02-2.03-18.26-2.03-27.65C68.41 83.99 152.39 0 255.99 0 359.6 0 443.58 83.99 443.58 187.59z" opacity="1" data-original="#595959"></path><path fill="#454545" d="m231.49 373.58 27.32 51.81-48.31 82.57c-49.68-8.91-94.39-32.16-129.7-65.3 20.39-97.72-4.98-173.1-10.35-227.33-.01-.03-.01-.06-.01-.09-1.34-9.02-2.03-18.26-2.03-27.65C68.41 83.99 152.39 0 255.99 0c-29.1 0-39.61 47.49 3.49 61.59L137.1 194.6l6.59 12.49z" opacity="1" data-original="#454545" class=""></path><path fill="#61a2f9" d="M398.41 468.76a254.144 254.144 0 0 1-39.18 21.57c-10.65 4.7-21.68 8.7-33.03 11.92-22.3 6.35-45.85 9.75-70.2 9.75-24.34 0-47.89-3.4-70.2-9.74-7.24-2.06-14.36-4.44-21.33-7.12a67.9 67.9 0 0 1-1.29-.49c-3.51-1.36-6.98-2.81-10.41-4.32a254.763 254.763 0 0 1-39.19-21.58 126.016 126.016 0 0 1 39.19-35.32c10.2-5.87 21.3-10.34 33.03-13.15 1.81-.44 3.64-.84 5.48-1.19 3.47-.68 7-1.2 10.57-1.57 1.03-.11 2.05-.21 3.09-.29 3.38-.28 6.8-.42 10.26-.42h81.59a127.725 127.725 0 0 1 23.92 2.26c1.39.27 2.77.56 4.14.87.45.12.91.21 1.35.33 11.74 2.82 22.83 7.29 33.03 13.16 15.43 8.9 28.79 20.96 39.18 35.33z" opacity="1" data-original="#61a2f9"></path><path fill="#4a81f6" d="M215.2 416.81c-29.36 0-49.26 42.43-50.73 78.33a67.9 67.9 0 0 1-1.29-.49c-3.51-1.36-6.98-2.81-10.41-4.32a254.763 254.763 0 0 1-39.19-21.58 126.016 126.016 0 0 1 39.19-35.32c10.2-5.87 21.3-10.34 33.03-13.15 1.81-.44 3.64-.84 5.48-1.19 3.47-.68 7-1.2 10.57-1.57 1.03-.11 2.05-.21 3.09-.29 3.38-.28 6.8-.42 10.26-.42z" opacity="1" data-original="#4a81f6"></path><path fill="#d82e3d" d="m255.987 468.111-52.994 29.451-16.121-79.986 32.929-14.393" opacity="1" data-original="#d82e3d" class=""></path><path fill="#dd636e" d="m255.987 468.111 52.994 29.451 16.121-79.986-32.928-14.393" opacity="1" data-original="#dd636e"></path><path fill="#efb29a" d="M300.706 368.538v54.869c0 20.088-13.245 37.067-31.489 42.707a44.605 44.605 0 0 1-13.23 1.997c-24.691 0-44.703-20.012-44.703-44.703v-54.869h89.422z" opacity="1" data-original="#efb29a"></path><path fill="#f9c5ac" d="M300.706 419.932v3.475c0 20.088-13.245 37.067-31.489 42.707-16.461-5.06-28.837-19.372-31.123-36.884 2.987.183 5.99.274 9.008.274 8.459 0 16.75-.671 24.828-1.997 9.953-1.6 19.57-4.161 28.776-7.575zM132.54 278.153c0 20.497-14.973 37.492-34.579 40.646a41.252 41.252 0 0 1-6.596.528c-22.746 0-41.175-18.429-41.175-41.175s18.429-41.175 41.175-41.175c2.249 0 4.453.181 6.596.528 19.606 3.156 34.579 20.152 34.579 40.648z" opacity="1" data-original="#f9c5ac" class=""></path><path fill="#efb29a" d="M132.54 278.153c0 20.497-14.973 37.492-34.579 40.646-3.562-12.95-5.464-26.579-5.464-40.646s1.902-27.696 5.464-40.646c19.606 3.154 34.579 20.15 34.579 40.646z" opacity="1" data-original="#efb29a"></path><circle cx="91.365" cy="278.153" r="14.716" fill="#efb29a" opacity="1" data-original="#efb29a"></circle><path fill="#f9c5ac" d="M379.449 278.153c0 20.497 14.973 37.492 34.579 40.646 2.143.347 4.347.528 6.596.528 22.746 0 41.175-18.429 41.175-41.175s-18.429-41.175-41.175-41.175c-2.249 0-4.453.181-6.596.528-19.606 3.156-34.579 20.152-34.579 40.648z" opacity="1" data-original="#f9c5ac" class=""></path><path fill="#efb29a" d="M379.449 278.153c0 20.497 14.973 37.492 34.579 40.646 3.562-12.95 5.464-26.579 5.464-40.646s-1.902-27.696-5.464-40.646c-19.606 3.154-34.579 20.15-34.579 40.646z" opacity="1" data-original="#efb29a"></path><circle cx="420.624" cy="278.153" r="14.716" fill="#efb29a" opacity="1" data-original="#efb29a"></circle><path fill="#f9c5ac" d="M410.7 199.66v56.85c0 76.02-54.84 139.25-127.12 152.24-.92.16-1.84.32-2.76.47a152.54 152.54 0 0 1-24.16 1.99c-85.45.36-155.37-70.64-155.37-156.09v-55.46c0-31.83 9.93-61.33 26.86-85.58 27.05-38.75 71.97-64.1 122.82-64.1h10.05c35.55 0 68.2 12.39 93.88 33.09 34.03 27.44 55.8 69.47 55.8 116.59z" opacity="1" data-original="#f9c5ac" class=""></path><path fill="#efb29a" d="M283.58 408.75c-.92.16-1.84.32-2.76.47a152.54 152.54 0 0 1-24.16 1.99c-85.45.36-155.37-70.64-155.37-156.09v-55.46c0-31.83 9.93-61.33 26.86-85.58l28.36-15.07v157.5c0 76.02 54.81 139.22 127.07 152.24z" opacity="1" data-original="#efb29a"></path><path fill="#454545" d="M325.517 95.756s-39.43 97.031-224.224 140.968c-1.106.263-2.216.524-3.332.783l3.332-75.235 32.039-65.658 90.008-32.367 84.621 15.367z" opacity="1" data-original="#454545" class=""></path><path fill="#efb29a" d="M273.377 297.923H238.62a7.497 7.497 0 1 1 0-14.993h34.757a7.497 7.497 0 1 1 0 14.993z" opacity="1" data-original="#efb29a"></path><path fill="#595959" d="m410.7 184.66 2.979 29.548-2.979 21.272c-65.36-41.58-85.183-139.724-85.183-139.724L354.9 68.07c34.03 27.44 55.8 69.47 55.8 116.59z" opacity="1" data-original="#595959"></path><path fill="#f1d333" d="M410.002 228.031c-.004-3.842-.017-8.293-.025-12.045-.005-2.615-1.545-5-3.956-6.014-16.308-6.859-48.11-12.03-68.471-12.03-22.361 0-38.82 4.919-50.317 15.037a46.513 46.513 0 0 0-8.044 9.199c-1.316 1.98-3.968 2.559-6.025 1.366a27.624 27.624 0 0 0-13.85-3.725h-6.636a27.598 27.598 0 0 0-13.85 3.725c-2.056 1.192-4.708.613-6.025-1.366a46.513 46.513 0 0 0-8.044-9.199c-11.497-10.118-27.956-15.037-50.317-15.037-20.361 0-52.164 5.17-68.471 12.03-2.411 1.014-3.95 3.399-3.955 6.014-.008 3.752-.021 8.203-.025 12.045-.002 1.474.447 2.889 1.192 4.161 4.27 7.291 2.622 18.115 2.622 29.004 0 17.188 7.483 33.306 21.073 45.382 12.967 11.524 29.859 17.871 47.565 17.871 17.873 0 34.915-7.709 47.986-21.707 12.285-13.155 19.331-30.326 19.331-47.108 0-1.171-.024-2.326-.071-3.464-.333-8.04 6.011-14.848 14.057-14.884l.25-.001.25.001c8.047.036 14.391 6.844 14.057 14.885a83.903 83.903 0 0 0-.071 3.463c0 16.782 7.046 33.953 19.331 47.108 13.072 13.998 30.113 21.707 47.986 21.707 17.705 0 34.598-6.347 47.565-17.871 13.589-12.076 21.073-28.193 21.073-45.382 0-10.893-1.65-21.72 2.627-29.012.741-1.269 1.189-2.681 1.188-4.153z" opacity="1" data-original="#f1d333" class=""></path><path fill="#b9e4ef" d="M232.28 254.91c0 25.06-18.86 50.67-44.25 57.61-4.33 1.2-8.84 1.83-13.5 1.83-31.89 0-59.24-23.8-59.24-53.16s16.88-53.15 59.24-53.15c6.09 0 11.62.35 16.62 1.07 5.26.74 9.95 1.86 14.1 3.36.01 0 .03.01.04.01.37.13.74.27 1.11.41 15.03 5.75 22.7 16.46 25.07 31.13.02.1.03.21.05.31.52 3.33.76 6.86.76 10.58zM397.65 261.19c0 19.13-11.42 35.94-28.16 45.53a64.162 64.162 0 0 1-16.59 6.62 64.708 64.708 0 0 1-15.45 1.86c-32.41 0-58.68-30.57-58.68-60.39 0-3.68.24-7.18.74-10.48 2.07-13.71 8.62-24.07 21.22-30.32l.81-.39c.36-.17.73-.34 1.11-.51.01-.01.02-.01.03-.01 7.57-3.35 17.15-5.33 29.05-5.79 1.85-.08 3.76-.12 5.72-.12 7.02 0 13.35.64 19.04 1.84 29.14 6.2 41.16 27.2 41.16 52.16z" opacity="1" data-original="#b9e4ef" class=""></path><circle cx="341.181" cy="295.496" r="19.082" fill="#93d8e4" opacity="1" data-original="#93d8e4" class=""></circle><circle cx="170.805" cy="295.496" r="19.082" fill="#93d8e4" opacity="1" data-original="#93d8e4" class=""></circle><path fill="#dd9f8a" d="M255.999 345.352c-12.828 0-25.656-3.214-37.349-9.642a6.815 6.815 0 0 1 6.566-11.944c19.276 10.597 42.292 10.596 61.566 0a6.815 6.815 0 0 1 6.566 11.944c-11.693 6.428-24.521 9.642-37.349 9.642z" opacity="1" data-original="#dd9f8a"></path><path fill="#93d8e4" d="M343.99 244.33h-64.48c2.07-13.71 8.62-24.07 21.22-30.32 3.44-1.25 7.15-1.93 11.02-1.93 17.81 0 32.24 14.44 32.24 32.25z" opacity="1" data-original="#93d8e4" class=""></path><circle cx="311.75" cy="258.054" r="22.023" fill="#595959" opacity="1" data-original="#595959"></circle><circle cx="320.928" cy="254.168" r="9.437" fill="#ffffff" opacity="1" data-original="#ffffff"></circle><path fill="#93d8e4" d="M231.52 244.33H168c0-17.81 14.43-32.25 32.24-32.25 1.7 0 3.38.13 5.01.39.01 0 .03.01.04.01.37.13.74.27 1.11.41 15.03 5.75 22.7 16.46 25.07 31.13.02.1.03.21.05.31z" opacity="1" data-original="#93d8e4" class=""></path><circle cx="200.24" cy="258.054" r="22.023" fill="#595959" opacity="1" data-original="#595959"></circle><path fill="#454545" d="M205.207 279.51c-1.6.38-3.26.57-4.97.57-12.16 0-22.02-9.86-22.02-22.03 0-12.16 9.86-22.02 22.02-22.02 1.71 0 3.37.2 4.97.57-9.78 2.25-17.06 11-17.06 21.45 0 10.46 7.28 19.21 17.06 21.46zM316.717 279.51c-1.6.38-3.26.57-4.97.57-12.16 0-22.02-9.86-22.02-22.03 0-12.16 9.86-22.02 22.02-22.02 1.71 0 3.37.2 4.97.57-9.78 2.25-17.06 11-17.06 21.45 0 10.46 7.28 19.21 17.06 21.46z" opacity="1" data-original="#454545" class=""></path><circle cx="209.418" cy="254.168" r="9.437" fill="#ffffff" opacity="1" data-original="#ffffff"></circle><path fill="#dd636e" d="M412.667 187.272c0 7.027-.508 13.949-1.509 20.712-10.588-72.09-76.013-127.582-155.163-127.582-8.572 0-16.97.633-25.142 1.912-20.041 3.045-38.801 9.69-55.517 19.196-39.629 22.558-67.855 61.24-74.517 106.422a142.564 142.564 0 0 1-1.495-20.659c0-53.936 30.469-101.148 76.013-127.055 16.73-9.519 35.489-16.164 55.517-19.209 8.172-1.279 16.57-1.912 25.142-1.912 86.533-.001 156.671 66.341 156.671 148.175z" opacity="1" data-original="#dd636e"></path><path fill="#d82e3d" d="M175.335 60.217v41.292c-39.629 22.558-67.855 61.24-74.517 106.422a142.564 142.564 0 0 1-1.495-20.659c0-53.936 30.469-101.148 76.012-127.055z" opacity="1" data-original="#d82e3d" class=""></path></g></svg>