<svg xmlns="http://www.w3.org/2000/svg" version="1.1" xmlns:xlink="http://www.w3.org/1999/xlink" width="512" height="512" x="0" y="0" viewBox="0 0 494.851 494.851" style="enable-background:new 0 0 512 512" xml:space="preserve" class=""><g><circle cx="216" cy="278.833" r="216" fill="#fd646f" opacity="1" data-original="#fd646f" class=""></circle><path fill="#fc4755" d="M432 278.833c0 119.29-96.71 216-216 216-64.73 0-122.82-28.48-162.4-73.6 38.02 33.37 87.85 53.6 142.4 53.6 119.29 0 216-96.71 216-216 0-54.55-20.23-104.38-53.6-142.4 45.12 39.58 73.6 97.67 73.6 162.4z" opacity="1" data-original="#fc4755"></path><circle cx="216" cy="278.833" r="163" fill="#f5f5f5" opacity="1" data-original="#f5f5f5" class=""></circle><path fill="#e6e6e6" d="M379 278.833c0 90.02-72.98 163-163 163-50.1 0-94.92-22.61-124.83-58.17 28.34 23.82 64.91 38.17 104.83 38.17 90.02 0 163-72.98 163-163 0-39.92-14.35-76.49-38.17-104.83 35.56 29.91 58.17 74.73 58.17 124.83z" opacity="1" data-original="#e6e6e6"></path><circle cx="216" cy="278.833" r="110" fill="#fd646f" opacity="1" data-original="#fd646f" class=""></circle><path fill="#fc4755" d="M326 278.833c0 60.75-49.25 110-110 110-35.47 0-67.03-16.79-87.14-42.86 18.57 14.34 41.86 22.86 67.14 22.86 60.75 0 110-49.25 110-110 0-25.28-8.52-48.57-22.86-67.14 26.07 20.11 42.86 51.67 42.86 87.14z" opacity="1" data-original="#fc4755"></path><circle cx="216" cy="278.833" r="56" fill="#f5f5f5" opacity="1" data-original="#f5f5f5" class=""></circle><path fill="#fc4755" d="M420.37 348.923a214.515 214.515 0 0 1-15.95 35.59l-48.22-22.49c6.61-11.1 11.93-23.06 15.76-35.67z" opacity="1" data-original="#fc4755"></path><path fill="#e6e6e6" d="M371.96 326.353a161.352 161.352 0 0 1-15.76 35.67l-48.41-22.57a108.919 108.919 0 0 0 15.4-35.84z" opacity="1" data-original="#e6e6e6"></path><path fill="#fc4755" d="M323.19 303.613a108.919 108.919 0 0 1-15.4 35.84l-50.02-23.32c8.66-9.7 14-22.43 14.22-36.4z" opacity="1" data-original="#fc4755"></path><path fill="#e6e6e6" d="M271.99 279.733c-.22 13.97-5.56 26.7-14.22 36.4l-46.85-21.85c-9.16-4.26-13.44-14.74-10.17-24.08.22-.61.46-1.22.74-1.83 2.28-4.88 6.31-8.37 11.01-10.08 4.68-1.7 10.03-1.63 14.9.65z" opacity="1" data-original="#e6e6e6"></path><path fill="#50758d" d="M493.178 90.195c1.602.267 2.234 2.232 1.088 3.384l-21.157 21.254-12.98 13.04-35.468 35.622a10 10 0 0 1-8.712 2.811l-52.901-8.713 39.62-39.3 13.13-13.02 24.15-23.96z" opacity="1" data-original="#50758d"></path><path fill="#2b597f" d="m473.11 114.833-12.98 13.04-57.46-9.58 13.13-13.02z" opacity="1" data-original="#2b597f"></path><path fill="#50758d" d="m414.63 58.223-24.03 23.51-13.07 12.79-39.48 38.63-8.817-53.578a10 10 0 0 1 2.793-8.691l35.614-35.651 13.03-13.05L402.228.608c1.155-1.156 3.133-.514 3.39 1.099z" opacity="1" data-original="#50758d"></path><path fill="#2b597f" d="m390.6 81.733-13.07 12.79-9.89-59.29 13.03-13.05z" opacity="1" data-original="#2b597f"></path><path fill="#918291" d="M460.34 54.993c0 4.98-1.9 9.98-5.71 13.78l-221.69 221.69c-7.14 7.15-18.45 7.59-26.11 1.32-.5-.41-.99-.85-1.46-1.32a19.419 19.419 0 0 1-5.71-13.79c0-4.98 1.9-9.98 5.71-13.78l221.69-221.69c7.61-7.62 19.96-7.62 27.57 0 .47.47.91.96 1.32 1.46 2.93 3.58 4.39 7.95 4.39 12.33z" opacity="1" data-original="#918291"></path><path fill="#7a6e79" d="M460.34 54.993c0 4.98-1.9 9.98-5.71 13.78l-221.69 221.69c-7.14 7.15-18.45 7.59-26.11 1.32l249.12-249.12c2.93 3.58 4.39 7.95 4.39 12.33z" opacity="1" data-original="#7a6e79"></path></g></svg>